<svg xmlns:xlink="http://www.w3.org/1999/xlink" class="img-fluid" xmlns="http://www.w3.org/2000/svg" viewBox="0 0 482 286.5" width="482"  height="286.5" >
    <path fill="#FF7F00" d="M19.4,88.2C11.4,88.2,5,94.7,5,102.6l0,0v15.5c0,7.9,6.4,14.4,14.4,14.4h0h443.3c7.9,0,14.4-6.4,14.4-14.4v0
	v-15.5c0-7.9-6.4-14.4-14.4-14.4h0H19.4 M19.4,83.2h443.3c10.7,0,19.4,8.7,19.4,19.4v0v15.5c0,10.7-8.7,19.4-19.4,19.4h0H19.4
	C8.7,137.4,0,128.8,0,118.1l0,0v-15.5C0,91.9,8.7,83.2,19.4,83.2L19.4,83.2z"></path>
    <path fill="#AFD2E9" d="M315.5,113.4l142.6,99.1l-77.4,13.7l-50.6,60.2L315.5,113.4z"></path>
    <path fill="#92B9D3" d="M315.5,113.4l142.6,99.1l-77.4,13.7L315.5,113.4z"></path>
    <path fill="#FFFFFF" d="M0,0h482v54.2H0V0z"></path>
    <circle fill="#E42537" cx="27.1" cy="28.1" r="9.7"></circle>
    <circle fill="#FF7F00" cx="51.3" cy="28.1" r="9.7"></circle>
    <circle fill="#70AE6E" cx="75.5" cy="28.1" r="9.7"></circle>
    <path fill="#01394D" d="M97.7,279.7H86.3c-2.3,0-4.3-1.4-5.1-3.6L74.5,258H34.3l-1.5,3.9c-0.3,0.9-1.3,1.3-2.2,1c0,0,0,0,0,0
	c-0.9-0.3-1.3-1.3-1-2.2c0,0,0,0,0,0l1.9-5c0.2-0.7,0.9-1.1,1.6-1.1h42.6c0.7,0,1.4,0.4,1.6,1.1l7.1,19.3c0.3,0.8,1,1.3,1.9,1.3h11
	l-22-62.8c-0.3-0.9,0.2-1.9,1-2.2l0,0c0.9-0.3,1.9,0.2,2.2,1l0,0l22.1,63.1c0.3,0.9,0.2,1.9-0.3,2.7
	C99.8,279.2,98.8,279.8,97.7,279.7z M22.4,279.7H11.1c-1,0-2-0.5-2.6-1.4c-0.6-0.8-0.8-1.9-0.4-2.9l34.3-97.7
	c0.8-2.2,2.8-3.6,5.1-3.6h13.8c0.2,0,0.5,0,0.7,0c2,0.3,3.7,1.7,4.4,3.6l8.6,24.5c0.3,0.9-0.2,1.9-1,2.2l0,0c-0.9,0.3-1.9-0.2-2.2-1
	l0,0l-8.6-24.5c-0.3-0.7-0.9-1.2-1.6-1.3c-0.1,0-0.2,0-0.3,0H47.5c-0.9,0-1.6,0.5-1.9,1.3l-34.2,97.4h11c0.4,0,0.9-0.1,1.2-0.4
	c0.3-0.2,0.6-0.6,0.7-0.9l1.6-4.3c0.3-0.9,1.3-1.3,2.2-1c0,0,0,0,0,0c0.9,0.3,1.3,1.3,1,2.2c0,0,0,0,0,0l-1.6,4.3
	c-0.4,1-1,1.9-1.9,2.5C24.7,279.4,23.6,279.7,22.4,279.7L22.4,279.7z M70.8,242.7H38.1c-0.6,0-1.1-0.3-1.4-0.7
	c-0.3-0.5-0.4-1-0.2-1.6l16.3-46.8c0.2-0.7,0.9-1.1,1.6-1.1c0.7,0,1.4,0.5,1.6,1.1l16.4,46.8c0.2,0.5,0.1,1.1-0.2,1.6
	C71.9,242.5,71.4,242.7,70.8,242.7L70.8,242.7z M40.5,239.3h27.9l-14-39.9L40.5,239.3z"></path>
    <path fill="#01394D" d="M37.2,279.7H22.4c-0.9,0-1.7-0.8-1.7-1.7c0,0,0,0,0,0c0-0.9,0.8-1.7,1.7-1.7h0h14.8c0.8,0,1.6-0.5,1.9-1.3
	l7.2-19.4c0.3-0.9,1.3-1.3,2.2-1c0,0,0,0,0,0c0.9,0.3,1.3,1.3,1,2.2c0,0,0,0,0,0l-7.2,19.4C41.5,278.3,39.5,279.7,37.2,279.7
	L37.2,279.7z M52.9,242.7c-0.2,0-0.4,0-0.6-0.1c-0.9-0.3-1.4-1.3-1.1-2.2c0,0,0,0,0,0l8.9-25.6c0.3-0.9,1.3-1.4,2.2-1.1c0,0,0,0,0,0
	c0.9,0.3,1.4,1.3,1.1,2.2c0,0,0,0,0,0l-8.9,25.6C54.3,242.3,53.6,242.7,52.9,242.7z M112.5,279.7H97.7c-0.9,0-1.7-0.7-1.8-1.7
	c0-0.9,0.7-1.7,1.7-1.8c0,0,0.1,0,0.1,0h14.5L78,178.9c-0.3-0.8-1-1.3-1.9-1.3H61.3c-0.9,0-1.7-0.8-1.7-1.7c0,0,0,0,0,0
	c0-0.9,0.8-1.7,1.7-1.7h0h14.8c2.3,0,4.4,1.5,5.1,3.6l34.3,97.7c0.6,1.7-0.3,3.5-1.9,4.1C113.2,279.7,112.8,279.7,112.5,279.7z"></path>
    <path fill="#01394D" d="M134.1,174.2h135.5c4,0,7.3,3.2,7.3,7.3l0,0c0,4-3.2,7.3-7.3,7.3H134.1c-4,0-7.3-3.2-7.3-7.3l0,0
	C126.8,177.5,130,174.2,134.1,174.2z"></path>
    <path fill="#01394D" d="M134.1,234.2h135.5c4,0,7.3,3.2,7.3,7.3l0,0c0,4-3.2,7.3-7.3,7.3H134.1c-4,0-7.3-3.2-7.3-7.3l0,0
	C126.8,237.5,130,234.2,134.1,234.2z"></path>
    <path fill="#01394D" d="M134.1,264.2h110.2c4,0,7.3,3.2,7.3,7.3l0,0c0,4-3.2,7.3-7.3,7.3H134.1c-4,0-7.3-3.2-7.3-7.3l0,0
	C126.8,267.5,130,264.2,134.1,264.2z"></path>
    <path fill="#01394D" d="M134.1,204.2h124.9c4,0,7.3,3.2,7.3,7.3l0,0c0,4-3.2,7.3-7.3,7.3H134.1c-4,0-7.3-3.2-7.3-7.3l0,0
	C126.8,207.5,130,204.2,134.1,204.2z"></path>
</svg>