<svg xmlns:xlink="http://www.w3.org/1999/xlink" class="hexagon hexagon-2" xmlns="http://www.w3.org/2000/svg" width="1252" height="608" viewBox="0 0 1252 608">
    <path fill="#70AE6E" stroke="#01394D" stroke-width="8px" stroke-miterlimit="10" opacity="0.25" d="M140.5,213c7.5,0,14.5,4.1,18.2,10.6
	l36.2,64c3.6,6.4,3.6,14.3,0,20.7l-36.2,64c-3.7,6.6-10.7,10.6-18.2,10.6H68.7c-7.5,0-14.5-4.1-18.2-10.6l-36.2-64
	c-3.6-6.4-3.6-14.3,0-20.7l36.2-64c3.7-6.6,10.7-10.6,18.2-10.6H140.5z"></path>
    <path fill="#70AE6E" stroke="#01394D" stroke-width="8px" stroke-miterlimit="10" d="M319.3,299c7.4,0,14.2,3.9,17.9,10.4
	l52.6,91.3c3.7,6.4,3.7,14.4,0,20.8l-52.6,91.3c-3.7,6.4-10.5,10.4-17.9,10.4H214c-7.4,0-14.2-3.9-17.9-10.4l-52.6-91.3
	c-3.7-6.4-3.7-14.4,0-20.8l52.6-91.3c3.7-6.4,10.5-10.4,17.9-10.4H319.3z"></path>
    <path fill="#70AE6E" stroke="#01394D" stroke-width="8px" stroke-miterlimit="10" d="M557.6,166c7.3,0,14.1,3.9,17.8,10.3
	l66.9,115.9c3.7,6.4,3.7,14.3,0,20.7l-66.9,115.9c-3.7,6.4-10.4,10.3-17.8,10.3H423.7c-7.3,0-14.1-3.9-17.8-10.3L339,312.8
	c-3.7-6.4-3.7-14.3,0-20.7l66.9-115.9c3.7-6.4,10.4-10.3,17.8-10.3H557.6z"></path>
    <path fill="#70AE6E" stroke="#01394D" stroke-width="8px" stroke-miterlimit="10" opacity="0.25" class="st0" d="M801.5,13c7.2,0,13.9,3.9,17.4,10.2
	l70.7,125.5c3.4,6.1,3.4,13.5,0,19.6l-70.7,125.5c-3.5,6.3-10.2,10.2-17.4,10.2H660.8c-7.2,0-13.9-3.9-17.4-10.2l-70.7-125.5
	c-3.4-6.1-3.4-13.5,0-19.6l70.7-125.5C647,16.9,653.6,13,660.8,13H801.5z"></path>
    <path fill="#70AE6E" d="M800.4,308c7.2,0,13.9,3.9,17.4,10.2
	l70.8,126c3.4,6.1,3.4,13.5,0,19.6l-70.8,126c-3.5,6.3-10.2,10.2-17.4,10.2H659.8c-7.2,0-13.9-3.9-17.4-10.2l-70.8-126
	c-3.4-6.1-3.4-13.5,0-19.6l70.8-126c3.5-6.3,10.2-10.2,17.4-10.2H800.4z" stroke-width="8px"></path>
    <path fill="#AFD2E9" stroke="#01394D" stroke-width="8px" stroke-miterlimit="10" d="M1124.6,112.6c7.3,0,14.1,4,17.7,10.4
	l95.9,170.3c3.5,6.2,3.5,13.8,0,20.1l-95.9,170.3c-3.6,6.4-10.4,10.4-17.7,10.4H933.5c-7.3,0-14.1-4-17.7-10.4l-95.9-170.3
	c-3.5-6.2-3.5-13.8,0-20.1l95.9-170.3c3.6-6.4,10.4-10.4,17.7-10.4H1124.6z"></path>
</svg>