<svg xmlns:xlink="http://www.w3.org/1999/xlink" class="hexagon hexagon-1" xmlns="http://www.w3.org/2000/svg" width="649" height="363" viewBox="0 0 649 363">
    <path fill="#01394D" stroke="#01394D" stroke-width="8px" stroke-miterlimit="10" d="M195.3,120.5c7.4,0,14.2,3.9,17.9,10.3
	l55.3,96c3.7,6.4,3.7,14.3,0,20.7l-55.3,96c-3.7,6.4-10.5,10.3-17.9,10.3H84.7c-7.4,0-14.2-3.9-17.9-10.3l-55.3-96
	c-3.7-6.4-3.7-14.3,0-20.7l55.3-96c3.7-6.4,10.5-10.3,17.9-10.3H195.3z"></path>
    <path fill="#AFD2E9" stroke="#01394D" stroke-width="8px" stroke-miterlimit="10" d="M575,139c7.4,0,14.3,4,18,10.4l44.5,77.4
	c3.7,6.5,3.7,14.4,0,20.9L593,325c-3.7,6.4-10.6,10.4-18,10.4h-89c-7.4,0-14.3-4-18-10.4l-44.5-77.4c-3.7-6.5-3.7-14.4,0-20.9
	l44.5-77.3c3.7-6.4,10.6-10.4,18-10.4H575z"></path>
    <path fill="#70AE6E" stroke="#01394D" stroke-width="8px" stroke-miterlimit="10" d="M397.6,9.1c7.4,0,16.2,3.9,19.9,10.3
	l57,98.9c3.7,6.4,3.7,14.3,0,20.7l-57,98.9c-3.7,6.4-10.5,10.3-17.8,10.3H285.5c-7.4,0-14.2-3.9-17.8-10.3l-57-98.9
	c-3.7-6.4-3.7-14.3,0-20.7l57-98.9c3.7-6.4,10.5-10.3,17.8-10.3H397.6z"></path>
</svg>