<svg xmlns:xlink="http://www.w3.org/1999/xlink" xmlns="http://www.w3.org/2000/svg" class="icon icon--logo" width="370"  height="51" ><defs><symbol id="icon--logo" viewBox="0 0 370 51">
            <style type="text/css">
              .logo-st0 {
                fill: currentColor;
              }

              .logo-st1 {
                fill: #ff7f00;
              }

              .logo-st2 {
                fill: #e52437;
              }
            </style>
            <path class="logo-st0" d="M363.1 37.8c-1.1 0-2.1-.1-3.1-.5-.8-.2-1.5-.6-2.1-1.1-.5-.4-.9-.8-1.2-1.3-.2-.3-.4-.7-.4-1 0-.2.1-.4.2-.5.1-.1.3-.2.5-.2h1.8l.3.3.9.9c.4.3.8.6 1.3.7.6.2 1.3.3 1.9.3.9 0 1.9-.2 2.7-.6.7-.4 1.1-1.1 1.1-1.8 0-.5-.1-.9-.4-1.3-.4-.4-1-.7-1.6-.9-1-.3-2-.6-3.1-.8-1.1-.2-2.1-.6-3.1-1.1-.7-.4-1.2-.9-1.6-1.6-.3-.6-.5-1.4-.5-2.1 0-.8.3-1.6.7-2.3.5-.8 1.3-1.4 2.1-1.8 1.1-.5 2.3-.7 3.5-.7 1 0 2 .1 2.9.4.7.2 1.4.6 2 1 .5.3.8.8 1.2 1.2.2.3.4.7.4 1 0 .2 0 .4-.2.5-.1.1-.3.2-.5.2h-1.4c-.1 0-.3 0-.4-.1-.1-.1-.2-.1-.3-.2-.2-.3-.5-.6-.8-.8-.3-.3-.7-.5-1.1-.7-.6-.2-1.2-.3-1.8-.3-.9-.1-1.7.2-2.4.7-.5.4-.8 1-.8 1.7 0 .4.1.8.4 1.1.4.4.8.7 1.4.9 1 .3 2 .6 3 .8 1.2.2 2.3.6 3.4 1.1.7.4 1.3.9 1.8 1.6.4.7.5 1.4.5 2.2 0 .9-.3 1.7-.8 2.5-.6.8-1.4 1.4-2.3 1.8-1.5.6-2.8.9-4.1.8M341.6 37.5c-.2 0-.4-.1-.5-.2-.1-.1-.2-.3-.2-.5V15.5c0-.2.1-.4.2-.5.1-.1.3-.2.5-.2h1.5c.2 0 .4.1.5.2.1.1.2.3.2.5v11.2l6.4-5.3c.2-.2.4-.3.6-.4.2-.1.5-.1.7-.1h1.7c.2 0 .4.1.5.2.1.1.2.3.2.5 0 .1 0 .2-.1.3l-.3.3-7.5 6.2 8.3 8c.3.2.4.4.4.6 0 .2-.1.4-.2.5-.1.1-.3.2-.5.2h-1.7c-.2 0-.5 0-.7-.1-.2-.1-.4-.3-.6-.4l-7.2-6.8V37c0 .2-.1.4-.2.5-.1.1-.3.2-.5.2h-1.5zM329.2 37.5c-.2 0-.4-.1-.5-.2-.1-.1-.2-.3-.2-.5V21.6c0-.2.1-.4.2-.5.1-.1.3-.2.5-.2h1.5c.2 0 .4.1.6.2.1.1.2.3.2.5V23c.4-.7 1-1.3 1.8-1.6.9-.4 1.8-.6 2.8-.5h1.3c.2 0 .4.1.5.2.1.1.2.3.2.5v1.3c0 .2-.1.4-.2.5-.1.1-.3.2-.5.2h-1.9c-1.9-.2-3.6 1.3-3.8 3.2v10c0 .2-.1.4-.2.5-.1.1-.3.2-.6.2h-1.7zM316.7 37.8c-1.4.1-2.9-.3-4.1-.9-1.1-.6-2-1.5-2.5-2.6-.6-1.2-.9-2.5-1-3.8v-2.8c0-1.3.4-2.6 1-3.8.6-1.1 1.5-2 2.5-2.6 2.6-1.2 5.6-1.2 8.2 0 1.1.6 2 1.5 2.5 2.6.6 1.2 1 2.5 1 3.8v2.8c0 1.3-.4 2.6-1 3.8-.6 1.1-1.5 2-2.5 2.6-1.2.7-2.7 1-4.1.9m0-2.4c1.2.1 2.4-.4 3.2-1.3.9-1 1.3-2.4 1.3-3.7V28c0-1.4-.4-2.7-1.3-3.7-.8-.9-2-1.3-3.2-1.3-1.2-.1-2.4.4-3.2 1.3-.9 1-1.3 2.4-1.3 3.7v2.4c-.1 1.4.4 2.7 1.3 3.7.8.9 2 1.3 3.2 1.3M288.7 37.5c-.2 0-.5-.1-.6-.2-.2-.2-.3-.4-.4-.6L283 21.8c0-.1-.1-.2-.1-.3 0-.2.1-.4.2-.5.1-.1.3-.2.5-.2h1.4c.2 0 .4.1.6.2.1.1.2.2.3.4l3.6 12.1 3.9-12c.1-.2.1-.3.3-.4.2-.2.4-.2.6-.2h1.1c.2 0 .5.1.6.2.1.1.2.3.3.4l3.9 12 3.6-12.1c0-.1.1-.3.2-.4.2-.1.4-.2.6-.2h1.5c.2 0 .3.1.5.2.1.1.2.3.2.5 0 .1 0 .2-.1.3L302 36.7c-.1.2-.2.4-.4.6-.2.2-.5.2-.7.2h-1.3c-.3 0-.5-.1-.7-.2-.2-.1-.3-.4-.4-.6l-3.8-11.5-3.8 11.5c-.1.2-.2.4-.4.6-.2.2-.5.2-.7.2h-1.1zM273.7 37.8c-1.1 0-2.2-.2-3.2-.7-.8-.4-1.5-1-2.1-1.7v1.3c0 .2-.1.4-.2.5-.1.1-.3.2-.5.2h-1.5c-.2 0-.4-.1-.5-.2-.1-.1-.2-.3-.2-.5V15.5c0-.2.1-.4.2-.5.1-.1.3-.2.5-.2h1.6c.2 0 .4.1.5.2.1.1.2.3.2.5v7.4c.6-.7 1.3-1.3 2.1-1.7 1-.5 2.1-.7 3.2-.7s2.1.2 3.1.6c.8.4 1.6 1 2.1 1.7.6.7 1 1.6 1.2 2.5.3.9.4 1.9.5 2.9v2c0 1-.2 2-.5 2.9-.3.9-.7 1.7-1.2 2.5-.6.7-1.3 1.3-2.1 1.7-1.1.4-2.1.6-3.2.5m-.7-2.6c.9.1 1.9-.2 2.6-.7.6-.5 1.1-1.1 1.4-1.9.3-.8.5-1.7.5-2.5v-1.9c0-.9-.2-1.7-.5-2.5s-.7-1.4-1.4-1.9c-1.6-1-3.6-1-5.2 0-.7.5-1.2 1.1-1.5 1.8-.3.7-.5 1.4-.5 2.2v2.4c0 .8.2 1.6.5 2.3.3.7.8 1.4 1.5 1.9.8.6 1.7.9 2.6.8M253.9 37.8c-2 .1-3.9-.6-5.4-2-1.4-1.5-2.2-3.5-2.2-5.6V28c.1-1.4.4-2.8 1.1-4 .6-1.1 1.5-2 2.6-2.6 1.2-.6 2.5-1 3.8-.9 1.4-.1 2.9.3 4.1 1 1.1.7 2 1.7 2.5 2.9.6 1.4.9 2.9.9 4.4v.5c0 .2-.1.4-.2.5-.1.1-.3.2-.5.2h-11.2v.3c0 .8.2 1.7.6 2.5.3.7.9 1.4 1.5 1.8.7.5 1.5.7 2.3.7.7 0 1.3-.1 1.9-.4.5-.2.9-.5 1.3-.8.2-.2.5-.4.6-.7.1-.2.3-.3.5-.5.2-.1.3-.1.5-.1h1.6c.2 0 .4.1.5.2.1.1.2.3.2.5-.1.4-.2.8-.5 1.2-.4.5-.9 1-1.4 1.4-.7.5-1.4.9-2.2 1.1-.9.5-1.9.6-2.9.6m-4.4-9.9h8.9v-.1c0-.9-.2-1.8-.5-2.6-.7-1.5-2.3-2.5-3.9-2.4-1.7-.1-3.2.9-3.9 2.4-.4.8-.5 1.7-.5 2.6v.1zM226.1 37.5c-.2 0-.5-.1-.7-.2-.2-.2-.3-.4-.3-.6L220.9 16V15.7c0-.2.1-.3.2-.4.1-.1.3-.2.5-.2h1.7c.5 0 .7.2.8.5l3.3 16.6 3.5-11.4c.1-.2.2-.4.3-.5.2-.2.4-.3.7-.2h1.2c.3 0 .5.1.7.2.1.1.2.3.3.5l3.5 11.4 3.3-16.6c.1-.4.3-.5.8-.5h1.7c.2 0 .3.1.5.2.1.1.2.3.2.4V16l-4.2 20.6c0 .2-.2.5-.3.6-.2.2-.4.2-.7.2h-1.3c-.3 0-.5-.1-.7-.2-.2-.2-.3-.4-.4-.6l-4-12.2-4 12.2c-.1.2-.2.4-.4.6-.2.2-.4.2-.7.2l-1.3.1zM194.4 37.5c-.2 0-.4-.1-.6-.2-.1-.1-.2-.4-.2-.6V21.6c0-.2.1-.4.2-.6.2-.2.4-.2.6-.2h3.7c.2 0 .4.1.6.2.2.1.3.4.2.6v1.2c.6-.7 1.3-1.3 2.2-1.7 1-.5 2.1-.7 3.2-.7 1.2 0 2.3.3 3.3.8 1 .6 1.8 1.4 2.3 2.4.6 1.2.9 2.6.8 4v9c0 .2-.1.4-.2.6-.2.2-.4.2-.6.2h-4.1c-.2 0-.4-.1-.6-.2-.2-.1-.2-.3-.2-.6V28c.1-.8-.2-1.7-.7-2.3-.6-.6-1.4-.9-2.2-.8-.8 0-1.6.3-2.1.8-.6.6-.9 1.5-.8 2.3v8.8c0 .2-.1.4-.2.6-.1.2-.4.2-.6.2h-4zM181.7 37.8c-1.6 0-3.1-.2-4.6-.9-1.2-.5-2.2-1.4-2.9-2.5-.7-1.2-1.1-2.5-1.1-3.9v-2.9c0-1.4.4-2.7 1.2-3.9.7-1.1 1.7-1.9 2.9-2.5 2.9-1.2 6.1-1.2 9 0 1.2.5 2.2 1.4 2.9 2.5.7 1.2 1.1 2.5 1.2 3.9v2.9c0 1.4-.4 2.7-1.1 3.9-.7 1.1-1.7 2-2.9 2.5-1.4.7-3 1-4.6.9m0-3.9c.8.1 1.6-.3 2.1-.9.5-.8.8-1.7.8-2.6v-2.6c0-.9-.3-1.8-.8-2.6-1.1-1.2-3-1.2-4.2 0-.5.8-.8 1.7-.8 2.6v2.6c0 .9.2 1.8.8 2.6.5.7 1.3 1 2.1.9M161.4 44.6c-1.4 0-2.8-.2-4.1-.6-1-.3-1.8-.9-2.6-1.5-.6-.5-1-1.1-1.4-1.8-.2-.4-.4-.9-.5-1.4 0-.2.1-.4.2-.6.2-.2.4-.2.6-.2h4.1c.2 0 .4 0 .5.2.2.1.3.3.3.5.1.2.3.5.5.7.2.3.5.5.8.6.4.2.9.3 1.4.3.6 0 1.1-.1 1.6-.3.4-.2.8-.6 1-1 .2-.6.4-1.2.3-1.8v-2.1c-.5.6-1.2 1-1.9 1.3-.9.4-1.9.5-2.8.5-1 0-2-.1-2.9-.5-.8-.3-1.5-.8-2.1-1.4-.6-.7-1-1.5-1.3-2.3-.3-1-.5-2.1-.6-3.2v-1.7c0-1.1.2-2.1.6-3.1.3-.9.7-1.7 1.3-2.4.6-.7 1.3-1.2 2.1-1.5.9-.4 1.9-.5 2.9-.5s2.1.2 3 .7c.8.4 1.5 1 2.1 1.7V22c0-.2.1-.4.2-.6.2-.2.4-.2.6-.2h3.7c.2 0 .4.1.6.2.2.1.2.3.2.6v15.4c0 1.4-.3 2.9-1 4.1-.7 1.1-1.7 2-2.9 2.5-1.3.3-2.9.6-4.5.6m-.2-11.6c.6 0 1.2-.1 1.7-.5.4-.3.8-.7 1-1.2.2-.5.3-1 .3-1.5v-2c0-.5-.1-1.1-.3-1.5-.2-.5-.5-.9-1-1.1-.5-.3-1.1-.5-1.7-.4-.6 0-1.2.1-1.7.5-.4.3-.7.7-.9 1.2-.2.5-.3 1.1-.3 1.7v1.4c0 .6.1 1.2.3 1.7.2.5.5.9.9 1.2.5.4 1.1.5 1.7.5M139 37.8c-1.1 0-2.2-.2-3.1-.7-.9-.4-1.6-1-2.2-1.8-1.4-2-.9-4.7 1-6.1 1.5-1 3.2-1.6 5-1.8l4.1-.6v-.4c0-.6-.1-1.2-.5-1.8-.5-.5-1.1-.7-1.8-.6-.5 0-1 .1-1.5.4-.4.2-.7.6-.9 1-.2.3-.5.4-.8.4h-3.6c-.2 0-.4-.1-.6-.2-.1-.1-.2-.3-.2-.5 0-.5.2-.9.4-1.3.4-.6.8-1.1 1.3-1.5.7-.5 1.5-1 2.3-1.2 1.1-.3 2.3-.5 3.5-.5 1.2 0 2.4.1 3.6.5.9.3 1.7.7 2.4 1.3.6.6 1.1 1.3 1.4 2 .3.8.4 1.7.4 2.6v9.8c0 .2-.1.4-.2.6-.1.2-.4.2-.6.2h-3.8c-.2 0-.4-.1-.6-.2-.1-.1-.2-.4-.2-.6v-1.1c-.3.4-.7.8-1.1 1.1-.5.4-1.1.6-1.7.8-.5.1-1.2.2-2 .2m1.6-3.6c.6 0 1.2-.1 1.7-.4.5-.3.9-.7 1.2-1.3.3-.7.5-1.4.4-2.1v-.5l-2.8.5c-.8.1-1.6.4-2.2.8-.4.3-.7.7-.7 1.2 0 .3.1.7.3.9.2.3.5.5.9.6.4.2.8.3 1.2.3M114.5 37.5c-.2 0-.4-.1-.5-.2-.1-.1-.2-.3-.2-.5v-.2c0-.1.1-.2.1-.3l5.4-7.4-4.9-6.9c-.1-.1-.1-.2-.1-.3v-.3c0-.2.1-.4.2-.5.1-.1.3-.2.5-.2h4c.2 0 .5.1.6.2.1.1.2.2.3.4l3 4.1 3-4.1c.1-.1.2-.3.3-.4.2-.2.4-.2.6-.2h3.8c.2 0 .4.1.5.2.1.1.2.3.2.5v.3c0 .1-.1.2-.1.3l-5.1 6.9 5.5 7.3c.1.1.1.2.1.3v.2c0 .2-.1.4-.2.5-.1.1-.3.2-.5.2h-4c-.2 0-.4 0-.6-.2l-.3-.3-3.3-4.4-3.3 4.4-.3.3c-.2.1-.4.2-.6.2l-4.1.1zM104.3 37.8c-2.2.1-4.4-.6-6.1-2.1-1.6-1.6-2.5-3.8-2.4-6.1v-1.1c0-1.5.4-3 1.2-4.3.7-1.2 1.7-2.1 2.9-2.8 1.4-.7 2.9-1 4.4-.9 1.6-.1 3.3.3 4.7 1.1 1.2.7 2.2 1.8 2.8 3 .6 1.4 1 2.9.9 4.4v.8c0 .2-.1.4-.2.6-.2.2-.4.2-.6.2h-10.4v.2c0 .6.1 1.2.3 1.7.2.5.5.9.9 1.2.4.3.9.5 1.5.4.4 0 .7-.1 1.1-.2.3-.1.5-.3.7-.5.2-.1.3-.3.5-.5.1-.2.3-.3.5-.4.2-.1.4-.1.6-.1h4c.2 0 .4.1.5.2.1.1.2.3.2.5-.1.5-.3.9-.6 1.3-.4.6-.9 1.1-1.5 1.5-.8.5-1.6 1-2.5 1.2-1.1.6-2.3.8-3.4.7m-2.8-10.3h5.5v-.1c0-.6-.1-1.2-.3-1.8-.2-.5-.5-.9-.9-1.2-.5-.3-1-.4-1.5-.4s-1 .1-1.5.4c-.4.3-.7.7-.9 1.2-.3.6-.4 1.2-.4 1.9zM73.5 37.5c-.2 0-.4-.1-.6-.2-.2-.2-.2-.4-.2-.6V15.9c0-.2.1-.4.2-.6.2-.2.4-.2.6-.2h4.2c.2 0 .4.1.6.2.2.1.3.4.2.6v7.7h8v-7.7c0-.2.1-.4.2-.6.2-.2.4-.2.6-.2h4.2c.2 0 .4.1.6.2.2.2.2.4.2.6v20.9c0 .2-.1.4-.2.6-.2.2-.4.2-.6.2h-4.2c-.2 0-.4-.1-.6-.2-.1-.1-.2-.4-.2-.6v-8h-8v8c0 .2-.1.4-.2.6-.2.2-.4.2-.6.2l-4.2-.1z"></path>
            <path class="logo-st1" d="M38.3 0 10.4 44.8l3.3 5.1c.3.4.7.6 1.2.6h27.9c.5 0 .9-.2 1.2-.7L58.3 27c.3-.4.3-.9 0-1.3L54.8 20 39.3 44.6h-6.5l18.6-29.8-4.2-6.7-22.7 36.5h-6.6L45.5.4c-.3-.2-.6-.4-1-.4h-6.2z"></path>
            <path class="logo-st2" d="m29.1 1.4-7.6 12.2H15l7.6-12.2h-6.9c-.5 0-.9.2-1.2.6L.2 24.9c-.1.1-.2.4-.2.6 0 .2.1.4.2.6l3.5 5.6 7.5-12.1h6.5L4.9 40.1l4.2 6.7L37.5 1.4h-8.4z"></path>
        </symbol></defs>
        <use xlink:href="#icon--logo" fill="#FFFFFF"></use>
    </svg>