<svg xmlns:xlink="http://www.w3.org/1999/xlink" xmlns="http://www.w3.org/2000/svg" class="icon icon--logo--no-text" width="59"  height="51" ><defs><symbol id="icon--logo--no-text" viewBox="0 0 59 51">
            <style type="text/css">
              .logo-st1 {
                fill: #ff7f00;
              }

              .logo-st2 {
                fill: #e52437;
              }
            </style>
            <path class="logo-st1" d="M38.3 0 10.4 44.8l3.3 5.1c.3.4.7.6 1.2.6h27.9c.5 0 .9-.2 1.2-.7L58.3 27c.3-.4.3-.9 0-1.3L54.8 20 39.3 44.6h-6.5l18.6-29.8-4.2-6.7-22.7 36.5h-6.6L45.5.4c-.3-.2-.6-.4-1-.4h-6.2z"></path>
            <path class="logo-st2" d="m29.1 1.4-7.6 12.2H15l7.6-12.2h-6.9c-.5 0-.9.2-1.2.6L.2 24.9c-.1.1-.2.4-.2.6 0 .2.1.4.2.6l3.5 5.6 7.5-12.1h6.5L4.9 40.1l4.2 6.7L37.5 1.4h-8.4z"></path>
        </symbol></defs>
        <use xlink:href="#icon--logo--no-text" fill="#FFFFFF"></use>
    </svg>