<svg xmlns:xlink="http://www.w3.org/1999/xlink" xmlns="http://www.w3.org/2000/svg" viewBox="0 0 122.892 98.773" width="123"  height="99" ><path d="m54.921 68.427-9.3-16.1a9.494 9.494 0 0 0-8.221-4.751H15.192C16.88 29.008 21.269 17.892 26.67 7.09L14.179 0C5.065 17.892 0 31.4 0 58.4v14.594h.019a9.479 9.479 0 0 0 1.267 4.928l9.3 16.1a9.5 9.5 0 0 0 8.223 4.748H37.4a9.5 9.5 0 0 0 8.223-4.748l9.3-16.1a9.5 9.5 0 0 0 0-9.5M121.621 68.427l-9.3-16.1a9.494 9.494 0 0 0-8.221-4.751H81.892C83.58 29.008 87.969 17.892 93.37 7.09L80.879 0C71.765 17.892 66.7 31.4 66.7 58.4v14.594h.019a9.479 9.479 0 0 0 1.267 4.928l9.3 16.1a9.5 9.5 0 0 0 8.223 4.748H104.1a9.5 9.5 0 0 0 8.223-4.748l9.3-16.1a9.5 9.5 0 0 0 0-9.5" fill="#AFD2E9"></path></svg>