<svg xmlns:xlink="http://www.w3.org/1999/xlink" class="img-fluid" xmlns="http://www.w3.org/2000/svg" viewBox="0 0 482 382" width="482"  height="382" >
    <path fill="#FFFFFF" d="M0,0h482v54H0V0z"></path>
    <circle fill="#E42537" cx="27" cy="28" r="10"></circle>
    <ellipse fill="#FF7F00" cx="51.5" cy="28" rx="9.5" ry="10"></ellipse>
    <ellipse fill="#70AE6E" cx="75.5" cy="28" rx="9.5" ry="10"></ellipse>
    <path opacity="0.2" fill="#FFFFFF" d="M0,54h482v328H0V54z"></path>
    <path fill="#AFD2E9" d="M376.7,346.5h-80.6v-40.7h80.6c11.2,0.1,20.3,9.3,20.2,20.5C396.8,337.4,387.8,346.4,376.7,346.5z"></path>
    <path fill="#539151" d="M296.2,346.5H105.3c-11.2-0.1-20.2-9.4-20.1-20.6c0.1-11,9-19.9,20.1-20.1h190.9
	c11.2,0.1,20.2,9.4,20.1,20.6C316.1,337.5,307.2,346.4,296.2,346.5z"></path>
    <path fill="#70AE6E" d="M296.3,305.8h-30.2c11.2,0.1,20.3,9.3,20.2,20.5c-0.1,11.1-9.1,20.1-20.2,20.2h30.2
	c11.2-0.1,20.3-9.3,20.2-20.5C316.4,314.9,307.4,305.9,296.3,305.8z"></path>
    <path fill="#12536A" d="M337.8,186.2v-12.3c0-4.2-3-7.8-7.2-8.5l-28-4.7c-1.1-3.6-2.6-7.2-4.4-10.6l16.5-23.1
	c2.4-3.4,2.1-8.1-0.9-11.1l-8.7-8.7c-3-3-7.7-3.4-11.1-0.9l-23.1,16.5c-3.4-1.8-6.9-3.2-10.6-4.4l-4.7-28c-0.7-4.1-4.3-7.2-8.5-7.2
	h-12.3c-4.2,0-7.8,3-8.5,7.2l-4.7,28c-3.6,1.1-7.2,2.6-10.6,4.4L188,106.3c-3.4-2.4-8.1-2.1-11.1,0.9l-8.7,8.7
	c-3,3-3.4,7.7-0.9,11.1l16.5,23.1c-1.8,3.4-3.2,6.9-4.4,10.6l-28,4.7c-4.1,0.7-7.2,4.3-7.2,8.5v12.3c0,4.2,3,7.8,7.2,8.5l28,4.7
	c1.1,3.6,2.6,7.2,4.4,10.6L167.3,233c-2.4,3.4-2.1,8.1,0.9,11.1l8.7,8.7c3,3,7.7,3.4,11.1,0.9l23.1-16.5c3.4,1.8,6.9,3.2,10.6,4.4
	l4.7,28c0.7,4.1,4.3,7.2,8.5,7.2h12.3c4.2,0,7.8-3,8.5-7.2l4.7-28c3.6-1.1,7.2-2.6,10.6-4.4l23.1,16.5c3.4,2.4,8.1,2.1,11.1-0.9
	l8.7-8.7c3-3,3.4-7.7,0.9-11.1l-16.5-23.1c1.8-3.4,3.2-6.9,4.4-10.6l28-4.7C334.7,194,337.8,190.4,337.8,186.2L337.8,186.2z
	 M262.5,180c0,11.9-9.6,21.5-21.5,21.5c-11.9,0-21.5-9.6-21.5-21.5c0-11.9,9.6-21.5,21.5-21.5C252.9,158.5,262.5,168.1,262.5,180
	L262.5,180z"></path>
    <path fill="#01394D" d="M330.6,165.7l-27.9-4.7c-1.1-3.6-2.6-7.2-4.4-10.5l16.5-23.1c2.4-3.4,2.1-8.1-0.9-11.1l-8.7-8.7
	c-3-3-7.6-3.4-11.1-0.9l-7.2,5.2c17.5,45.5-5.3,96.5-50.8,114c-20.4,7.8-42.9,7.8-63.3,0l-5.2,7.2c-2.4,3.4-2.1,8.1,0.9,11.1
	l8.7,8.7c3,3,7.6,3.4,11.1,0.9l23.1-16.5c3.4,1.8,6.9,3.2,10.5,4.4l4.7,27.9c0.7,4.1,4.3,7.2,8.5,7.2h12.3c4.2,0,7.8-3,8.5-7.2
	l4.7-27.9c3.6-1.1,7.2-2.6,10.5-4.4l23.1,16.5c3.4,2.4,8.1,2.1,11.1-0.9l8.7-8.7c3-3,3.4-7.6,0.9-11.1l-16.5-23.1
	c1.8-3.4,3.2-6.9,4.4-10.5l27.9-4.7c4.1-0.7,7.2-4.3,7.2-8.5v-12.3C337.8,169.9,334.8,166.3,330.6,165.7L330.6,165.7z"></path>
</svg>