<svg xmlns:xlink="http://www.w3.org/1999/xlink" class="hexagon hexagon-5" xmlns="http://www.w3.org/2000/svg" width="662" height="332" viewBox="0 0 662 332">
<path fill="#70AE6E" stroke="#01394D" stroke-width="8px" stroke-miterlimit="10" d="M472.9,235c-7.4,0-14.2-3.9-17.9-10.4
	l-52.6-91.3c-3.7-6.4-3.7-14.4,0-20.8L455,21.4c3.7-6.4,10.5-10.4,17.9-10.4h105.3c7.4,0,14.2,3.9,17.9,10.4l52.6,91.3
	c3.7,6.4,3.7,14.4,0,20.8l-52.6,91.3c-3.7,6.4-10.5,10.4-17.9,10.4H472.9z"></path>
<path fill="#70AE6E" stroke="#01394D" stroke-width="8px" stroke-miterlimit="10" opacity="0.25" d="M328.7,321c-7.5,0-14.5-4.1-18.2-10.6
	l-36.2-64c-3.6-6.4-3.6-14.3,0-20.7l36.2-64c3.7-6.6,10.7-10.6,18.2-10.6h71.8c7.5,0,14.5,4.1,18.2,10.6l36.2,64
	c3.6,6.4,3.6,14.3,0,20.7l-36.2,64c-3.7,6.6-10.7,10.6-18.2,10.6H328.7z"></path>
<path fill="#AFD2E9" stroke="#01394D" stroke-width="8px" stroke-miterlimit="10" opacity="0.25" d="M50.9,253c-7.7,0-14.8-4.2-18.7-10.9
	l-18.9-33.4c-3.7-6.6-3.7-14.7,0-21.3l18.9-33.4c3.8-6.7,10.9-10.9,18.7-10.9h37.3c7.7,0,14.8,4.2,18.7,10.9l18.9,33.4
	c3.7,6.6,3.7,14.7,0,21.3l-18.9,33.4C103,248.8,95.9,253,88.2,253H50.9z"></path>
<path fill="#AFD2E9" stroke="#01394D" stroke-width="8px" stroke-miterlimit="10" opacity="0.25" d="M168.3,240c-7.4,0-14.3-4-18-10.5
	l-42.9-75.1c-3.7-6.4-3.7-14.3,0-20.8l42.9-75.1C154,52,160.8,48,168.3,48h85.5c7.4,0,14.3,4,18,10.5l42.9,75.1
	c3.7,6.4,3.7,14.3,0,20.8l-42.9,75.1c-3.7,6.5-10.6,10.5-18,10.5H168.3z"></path>
</svg>